<svg id="Phase7" xmlns="http://www.w3.org/2000/svg" viewBox="0 0 1080 1920"><defs><style>.cls-1,.cls-2{fill:none;stroke-width:3px;}.cls-1{stroke:#ef3e42;}.cls-2{stroke:#009d57;}</style></defs><title>Phase7</title><path class="cls-1" d="M219.85,631.76c0-25.61,4.44-35.39,15.15-44.51,9.71-8.26,26.09-15.66,40.89-20.61"/><path class="cls-2" d="M272,991.41c-.94,7.67-2.06,14.91-3.32,20.86-3.88,18.4-1.49,61.2.56,81.53,1.59,15.81,6.94,75.4,7.2,85.5,0,0,1.72,34.64,2,54.12s-.68,45.81-5.6,59.88-9.69,24.44-14.22,42.93c-1.07,4.38-4.16,18.47-6.19,40-2.49,26.48,3.33,46,22.23,53.85,18,7.49,49.13-13.73,68-27.07s71-47.8,71-47.8a219.07,219.07,0,0,1,20.43-13.57"/><path class="cls-2" d="M434.05,1341.61a55,55,0,0,1,9.73-4.54,25.89,25.89,0,0,0,5.27-2.07c3.94-2.35,9.44-3.52,16.95-3.82,4.22-.17,12.08.29,15.49,1.12a47.71,47.71,0,0,1,16.1,7.09c2.43,1.61,5.7,3.8,9.44,6.3"/><path class="cls-1" d="M433.44,1340.54c10.19,7.5,9.51,14.39,21.62,7.15,3.71-2.22,7.66-3.07,14.69-3.35a76.2,76.2,0,0,1,15.05,1.07,45.91,45.91,0,0,1,15.52,6.84l6.71,4.47"/></svg>