<svg id="Phase21" xmlns="http://www.w3.org/2000/svg" viewBox="0 0 490.91 384.02"><defs><style>.cls-1,.cls-2,.cls-3{fill:none;stroke-width:3px;}.cls-1{stroke:#f58220;}.cls-2{stroke:#7dc242;}.cls-3{stroke:#006bb6;}</style></defs><title>phase21</title><path class="cls-1" d="M222.9,1156.18c5.25,10.53,13.62,14.7,24.31,14.9,0,0,24.46-.18,43.86-.27" transform="translate(-221.56 -1155.51)"/><path class="cls-2" d="M459.47,1421.43c2.1,5.8,7.52,9.35,16.23,9.17l1.72.1c19.48.74,46.24.08,55.16.34,8.72.27,21.24,2.28,31.76,20.34,10.62,18.23,15.29,26.11,15.29,26.11a107.72,107.72,0,0,1,10.15,26.82c2.1,8.78,2.66,20.53,7.69,32.63" transform="translate(-221.56 -1155.51)"/><path class="cls-1" d="M451.29,1395.57c0,3.39.06,6.65.07,9.82,0,11.27,5.71,18.49,17.57,19.15,19.39,1.08,48.1.54,57,.54s21.73,1.08,32.2,19.48,15.52,26.52,15.52,26.52a100.36,100.36,0,0,1,9.7,27.06c2.33,10.82,3.1,26,12.41,40.58" transform="translate(-221.56 -1155.51)"/><path class="cls-3" d="M711.43,1198.71c-11.56,11.12-100.85,110.37-117.06,119.55-37.17,21.08-50.81,29.07-64.34,36.26-13.72,7.3-5.85,12-21,24.27-5.32,4.31-10.45,6.11-16.1,6.2-7.88.13-17.38-.06-21-.06-8,0-11.22-9.1-11.4-16.86-.35-15.43.1-24-1.66-38.75" transform="translate(-221.56 -1155.51)"/><path class="cls-1" d="M291.09,1173.57A18.26,18.26,0,0,0,281,1170.9" transform="translate(-221.56 -1155.51)"/><path class="cls-1" d="M477.59,1292.73c-8.18-8-17.13-16.89-24.65-24.82-21.22-22.34-47.07-22.93-57.78-20.11l.09,0s-30.91,6.71-50.1,10.34c-11.46,2.17-19.57.71-25.31-3" transform="translate(-221.56 -1155.51)"/></svg>