<svg id="Phase22" xmlns="http://www.w3.org/2000/svg" viewBox="0 0 1080 1920"><defs><style>.cls-1,.cls-2,.cls-3{fill:none;stroke-width:3px;}.cls-1{stroke:#f58220;}.cls-2{stroke:#ffd420;}.cls-3{stroke:#006bb6;}</style></defs><title>phase22</title><path class="cls-1" d="M923.73,733.13s-42.19,72.78-56.18,86.08a38.77,38.77,0,0,1-10.67,7.27"/><path class="cls-2" d="M726.66,838.19l-.38.07c-8.83.88-23.92,3-41,5.4-29.19,4.1-62.28,8.76-78.79,9.38-14.15.54-32-4.63-49.29-10.57"/><path class="cls-1" d="M718.91,825.59c-9,1-22.69,2.92-38.25,5.11-29.15,4.1-62.2,8.75-78.64,9.37-11.64.45-25.95-3.09-40.39-7.72"/><path class="cls-3" d="M550.08,859.19c22.17,8.06,48.07,17.63,68.74,16.84,29.24-1.11,109.24-14.45,127.58-15.57s88-5.19,98.34-5.19c3.88,0,9.5-.11,16.14-.27"/><path class="cls-1" d="M856.88,826.48a31.71,31.71,0,0,1-12.18,2.87c-9.77.27-17.62.45-22.61.45-10.25,0-79.26,4.06-95.79,5.06-7.41.45-24.84,2.9-45,5.74-29.26,4.11-62.43,8.77-79.09,9.41-13.41.5-29.11-3.53-44.58-8.64"/></svg>