<svg id="Phase28" xmlns="http://www.w3.org/2000/svg" viewBox="0 0 1080 1920"><defs><style>.cls-1,.cls-2,.cls-3{fill:none;stroke-width:3px;}.cls-1{stroke:#f58220;}.cls-2{stroke:#006bb6;}.cls-3{stroke:#b0720d;}</style></defs><title>phase28</title><path class="cls-1" d="M431.2,865.28c-8.55,11.68-32.43,10.28-47.87,10.28"/><path class="cls-1" d="M383.33,875.56s-117.32-.29-145-.29c-12.07,0-21.76,17-21.68,31.78"/><path class="cls-2" d="M860.88,855l12.84-.35c8.57-.23,13.23,13.72,18.68,20.53s12.26,9,20.69,8.46c14.18-.81,16.61-1.3,24.39-12.59,5.37-7.8,13.09-18.8,13.09-18.8"/><path class="cls-3" d="M846.09,900.86c6.74-9.18,11.35-9.78,17.41-11.9,8.62-3,15.74-5.8,21.19-8,9.48-3.78,40.2-50.74,40.2-50.74"/><path class="cls-1" d="M216.66,907.05c0,.94,0,22,0,50.54"/><path class="cls-1" d="M291.07,1170.81c7.65,0,14.51-.07,18.78-.07,15,0,15.7,16.43,20.13,30.37,4.73,14.88,7.76,32.76,38.47,32.76,12.93,0,38,1.27,38,1.27,18.48-.24,31.29,11.21,36.33,31.23,1.26,5,4,12.08,5.41,22.12"/><path class="cls-1" d="M319.84,1255.15c-13.73-8.78-14-30.18-14.25-44.93-.31-17.73-5.56-31.19-14.5-36.65"/></svg>