<svg id="Phase20" xmlns="http://www.w3.org/2000/svg" viewBox="0 0 1080 1920"><defs><style>.cls-1,.cls-2,.cls-3{fill:none;stroke-width:3px;}.cls-1{stroke:#f58220;}.cls-2{stroke:#006bb6;}.cls-3{stroke:#ffd420;}</style></defs><title>phase20</title><path class="cls-1" d="M561.63,832.35c-7.68-2.46-15.39-5.23-22.76-7.88L534.65,823c-9.1-3.3-17.7-6.41-24.88-8l-11.27-2.41-4.12-.87c-3.29-.7-32-2-39.26-2.18-5.78-.23-10,7.1-11.19,19.48-.82,8.37-6.54,15.75-14.52,25.25a39.17,39.17,0,0,0-2.56,3.45c-5.61,8.44-10.51,19.1-15.48,33.53-1,2.79-3.84,11.38-6.17,15-16.88,26-25.88,25.27-32.18,25-.72,0-142.79,0-142.79,0-4.75,0-13.6,2-13.6,22.8"/><path class="cls-1" d="M557.61,841.37c-7-2.3-13.9-4.82-20.55-7.24-10.45-3.8-20.33-7.39-28.31-9.33-24.46-5.93-43.26,9.22-61.45,23.87l-.31.25a83.74,83.74,0,0,0-15.79,16.36c-8.55,11.68-32.43,10.28-47.87,10.28,0,0-117.32-.29-145-.29-12.07,0-21.76,17-21.68,31.78,0,.94,0,22,0,50.54"/><path class="cls-2" d="M140,988.19c0-14.46,2.83-28.06,20.08-28.06H381.48c7.18,0,17,3.7,37.21-27.44s22.86-43,41.73-58.21,37.47-30.33,61.92-24.4c7.82,1.9,17.37,5.34,27.74,9.11"/><path class="cls-3" d="M557.23,842.47c-4.9-1.68-9.76-3.43-14.48-5.12-10.67-3.84-20.73-7.66-28.88-9.43-3.74-.82-11.94-2.55-15.38-3.28-3-.65-30.49-1.88-39-2.15-5.83-.18-8.19,9.71-8.87,16.63-.91,9.35-6.62,17-15.33,27.35-7,8.35-13.59,27.1-26.63,43.75-4.17,5.33-8.63,12.94-24.92,9.33s-20.31-8.65-33.44-8.65"/></svg>