<svg id="Phase23" xmlns="http://www.w3.org/2000/svg" viewBox="0 0 1080 1920"><defs><style>.cls-1,.cls-2{fill:none;stroke-width:3px;}.cls-1{stroke:#f58220;}.cls-2{stroke:#7dc242;}</style></defs><title>phase23</title><path class="cls-1" d="M923.73,733.13s-42.19,72.78-56.18,86.08a38.77,38.77,0,0,1-10.67,7.27"/><path class="cls-2" d="M442.72,1081.18c43.74,53.51,110.31,135,118.7,145.2,9.72,11.83,5.05,23.28,1.56,28.15s-48.5,70.88-48.5,70.88l-17,30.55c-2.23,4-8,5.9-10.15,5.9-6.73,0-14.8.19-19.79.19-5.54,0-9.2,4.49-9.15,11.25s-.17,30.52.1,42.5a17.94,17.94,0,0,0,1,5.63"/></svg>