<svg id="Phase14" xmlns="http://www.w3.org/2000/svg" viewBox="0 0 1080 1920"><defs><style>.cls-1,.cls-2,.cls-3{fill:none;}.cls-1,.cls-2{stroke:#ffd420;}.cls-1,.cls-3{stroke-width:3px;}.cls-2{stroke-width:1.1px;}.cls-3{stroke:#b0720d;}</style></defs><title>phase14</title><path class="cls-1" d="M493,1318.34c-1.69-1-6.47-8.37-8.65-9.6"/><path class="cls-1" d="M266.53,1404c21.73,22.46,57.67-4.16,68.14-9.84,7.57-4.11,68.29-40.23,106.29-62.43,14.23-8.32,25.26-14.67,29.09-16.62,5.3-2.71,11.57-1.74,16.87.34"/><path class="cls-1" d="M262.54,1231.14c-.74,24.13,53.4,47.19,87.4,40.22C366.55,1268,400,1261,400,1261c12.36-3.25,36.85-.54,55.86,19.48,7,7.33,16.49,16.6,23.91,24.65"/><path class="cls-2" d="M489.18,1311.58c-.89-.93-2.26-3.28-4-3.42"/><path class="cls-2" d="M492,1318.79c-1.56-.52-4.64-4.55-5.33-5.42"/><path class="cls-3" d="M264.88,1400.82c4.65,9.59-5.26-36.09-2.43-39"/><path class="cls-3" d="M266.06,1402.57c21.73,22.45,57.66-4.16,68.14-9.84,7.56-4.11,68.29-40.24,106.28-62.44,14.24-8.31,25.27-14.66,29.1-16.62,5.3-2.71,11.57-1.74,16.87.35"/></svg>