<svg id="Phase12" xmlns="http://www.w3.org/2000/svg" viewBox="0 0 1080 1920"><defs><style>.cls-1,.cls-2{fill:none;stroke-width:3px;}.cls-1{stroke:#ffd420;}.cls-2{stroke:#ef3e42;}</style></defs><title>phase12</title><path class="cls-1" d="M186.21,983.4c2.2,5.34,5.57,9.81,10.25,14.81,14.2,15.19,27.1,29,44.59,48.62,15,16.83,24.94,41.12,25.13,57.92.24,21.81,0,57.92,0,74.72,0,24.36-4.39,66.4-9.12,82.23-6.4,21.46-10.1,35.4-18.72,59.71-6.64,18.72-5.41,35.78-2.54,43.89,3.09,8.72,10.25,17.44,30.73,38.68"/><path class="cls-2" d="M185.86,991.33c1.28,5.21,1.48,10.91,1.48,19.58v18.51"/><path class="cls-2" d="M187.34,1029.42c0,31.86,0,89.61,0,99.11,0,25.74,4.42,37.65,12.2,61.49,6.53,20,13.92,44.34,14.66,69.72.72,24.9,10.63,31.24,22.11,34.86,8.5,2.68,17.92,6.17,32.15,10.46,17.42,5.25,16.24,20.77,15.21,26.54s-6.41,18.24,3.94,35"/><path class="cls-2" d="M264.88,1417.73c-17.94-4.22-46.68-31.85-48.18-50.9"/><path class="cls-2" d="M216.65,1365.93c-.74-22.52-1.71-89.65-2-99.39"/></svg>