<svg id="Phase15" xmlns="http://www.w3.org/2000/svg" viewBox="0 0 1080 1920"><defs><style>.cls-1,.cls-2,.cls-3{fill:none;stroke-width:3px;}.cls-1{stroke:#ffd420;}.cls-2{stroke:#009d57;}.cls-3{stroke:#f58220;}</style></defs><title>phase15</title><path class="cls-1" d="M707.56,1784c8.93-9.42,34.37-37.54,42.21-45.4,2.86-2.85,6-12.91,6.29-19.59"/><path class="cls-2" d="M440.9,384.54c-8.53,10.1-31,39.68-38.53,50.86s-14.49,44.38-15.78,60.25"/><path class="cls-2" d="M385.81,497.82c-5.13-8.47.19-37.79,6.73-54.48,6.28-16,21.1-34.61,28.45-42.2,7-7.22,11.64-14.44,17.84-14.8"/><path class="cls-1" d="M399.17,897.45c-12.79,10.81-30.48,13.44-42.32,13.44H194c-4.84,0-8.46,3.16-10.08,9.1"/><path class="cls-1" d="M479.81,1305.15c7.5,8.13,12.23,2.44,18,6.13,5.32,3.41,3.48,14.56,5.49,19.16,1.6,3.67,7.85,8,12.38,13.64a30.73,30.73,0,0,0,6.47,5.94c9.05,5.94,27.06,17.74,34.21,22.47a60.4,60.4,0,0,1,9.2,7.2c8.78,8.85,17,17.56,21.09,22,4.77,5.2,19,18.4,22.89,37.34s7.62,49.8,16.29,64.93c1.21,2.1,8,12.54,17.35,26.87"/><path class="cls-3" d="M609.3,1437.91c-.61-3.39-1.21-6.6-1.81-9.54-3.56-17.41-15.09-29.8-21.28-36.45l-2.44-2.69c-6.95-7.53-12.95-13.7-19.92-20.85a71.86,71.86,0,0,0-12.06-9.74c-6.47-4.29-27.44-17.83-34.28-22.39-2.27-1.52-6.39-6.52-10-11.13a208,208,0,0,0-17.3-19.95c-3.72-3.68-8.06-7.93-12.65-12.44"/></svg>