<svg id="Phase8" xmlns="http://www.w3.org/2000/svg" viewBox="0 0 1080 1920"><defs><style>.cls-1,.cls-2{fill:none;stroke-width:3px;}.cls-1{stroke:#b0720d;}.cls-2{stroke:#f58220;}</style></defs><title>phase8</title><path class="cls-1" d="M343.23,1198.51c20.75-11.75,53.86-32.64,71.75-32.64,5.94,0,23.31-2.62,44.16-4.61l0,0"/><path class="cls-1" d="M261.73,1363.52c-1.29-16-1.15-32.91,1.37-44.91,2.79-13.31,7.95-29.08,10.27-42.11"/><path class="cls-1" d="M274.55,1266c.35-15.94-.7-33.77-1-40.38s1.67-19.42,19.05-19.42c8.69,0,28.11-.54,28.11-.54a61.73,61.73,0,0,0,22.48-7.13"/><path class="cls-2" d="M629.62,1077c6.4-17.52,17.21-54.06,14.21-105.28"/><path class="cls-2" d="M578.3,1144.53c6.72-1.18,22.13-19.58,34.09-36.71"/><path class="cls-2" d="M612.39,1107.82c7.12-10.19,13-19.93,15.15-25.32.61-1.54,1.31-3.37,2.08-5.47"/></svg>