<svg id="Phase19" xmlns="http://www.w3.org/2000/svg" viewBox="0 0 1080 1920"><defs><style>.cls-1,.cls-2,.cls-3{fill:none;stroke-width:3px;}.cls-1,.cls-2{stroke:#f58220;}.cls-2{stroke-dasharray:5 1.5;}.cls-3{stroke:#006bb6;}</style></defs><title>phase19</title><path class="cls-1" d="M138.94,568.84c0-23.45,1.11-32.92,25.68-34.6,23.65-1.6,69.65-4.55,86.53-5.45,13-.69,31-17.34,34-55.77,3-38,3.26-85.74-1.81-100.29a20.69,20.69,0,0,1,.52-15.52c.77-2.16,8.53-18-1.81-35"/><path class="cls-2" d="M138.94,562.75c0-18-.64-33.29,12.81-39.43s61.57-7.71,73.21-9.51,44.43,0,50.9-37.58c6.2-36,2.72-93.5,2.72-107.57S277.26,260.29,281,244.2"/><path class="cls-1" d="M138.81,572.22c0-14.07.54-39.32,14-45.45s63.83-7.22,75.47-9,42.67-1.81,49.66-37.52,3.88-93.08,3.88-107.15V252.58c0-5.41,1.55-37.87,27.67-41.48"/><path class="cls-3" d="M458.88,1329.32c-2.14-18-22.19-21.85-37.13-14.14-20.82,10.76-69.23,26.44-98.47,29.78s-70.58-5.16-83.49-21.33c-14.4-18-14.91-40.28-15.45-55.48-.12-3.56-.27-9.5-.43-16.55"/><path class="cls-1" d="M448.21,1288.49c2.26,16.35,1.54,30.71,2.37,45.2.41,7,.26,12.9.5,17.25.26,4.63.25,9.13.2,13.48-.15,12-.06,22.06,0,31.15"/></svg>