<svg id="Phase9" xmlns="http://www.w3.org/2000/svg" viewBox="0 0 1080 1920"><defs><style>.cls-1,.cls-2,.cls-3,.cls-4,.cls-5{fill:none;}.cls-1,.cls-4{stroke:#ffd420;}.cls-1,.cls-2,.cls-3{stroke-width:3px;}.cls-2{stroke:#9d3d96;}.cls-3,.cls-5{stroke:#f58220;}.cls-4,.cls-5{stroke-width:3.7px;}</style></defs><title>phase9</title><path class="cls-1" d="M503,1622c0,10.1-2.58,29.94,19.92,29.94h95.69c7.76,0,22.12-1.62,33.88,14.79,11,15.33,37.75,52.14,43.68,61.22l2.86,4.32"/><path class="cls-2" d="M364.35,991.71c-5.2-.15-46.85-.24-94.14-.3"/><path class="cls-3" d="M503.34,1471.92c.37-50.42.79-108.62.79-123.35,0-17.46-1.91-39-6.53-47.06-2.81-4.91-8.35-5.28-12.59-5.45-1.35-.06-5.76-1.59-7.42-3.33"/><path class="cls-1" d="M492.2,1317.85a26.39,26.39,0,0,1,5.56,4.46c7.47,7.5,7.75,18.56,8.21,40.75.07,3.4-1.86,216.15-1.86,216.15l0,0c-.61,19.53-1,37.8-1.11,44.18-.42,20.13-2.06,49.21,3.37,77.38,5.78,30,10.26,48.5,10.26,48.5"/><path class="cls-4" d="M643.17,1530.86c26.93,41.14,75.37,114.37,75.37,114.37s24.83,39.51,29.88,46c3.37,4.35,8,15.23,7.14,26.49"/><path class="cls-5" d="M645.17,1525.86c26.93,41.14,75.37,114.37,75.37,114.37s24.83,39.51,29.88,46c3.37,4.35,8,15.23,7.14,26.49"/></svg>