<svg id="Phase16" xmlns="http://www.w3.org/2000/svg" xmlns:xlink="http://www.w3.org/1999/xlink" viewBox="0 0 1080 1920"><defs><style>.cls-1,.cls-3,.cls-4{fill:none;stroke-width:3px;}.cls-1{stroke:#ef3e42;}.cls-2{clip-path:url(#clip-path);}.cls-3,.cls-4{stroke:#009d57;}.cls-4{stroke-dasharray:5 1.5;}</style><clipPath id="clip-path"/></defs><title>phase16</title><path class="cls-1" d="M599.63,1387.65c7.76-5.41,18.59-10.73,28.29,3.88s74.88,112.56,74.88,112.56"/><path class="cls-1" d="M507,1356.72c14.19,9.5,37.92,25.58,44.2,29.85,19.95,13.59,34.55,9.66,46.46,2.15A185.57,185.57,0,0,0,622.45,1372c19.41-15.85,45.7-38.37,67.65-58"/><g class="cls-2"><path class="cls-3" d="M498.32,235.9c0,43.29-14.23,79.37-22.24,96.33s-26.64,42.2-35.18,52.31-31,39.68-38.53,50.86-14.49,44.38-15.78,60.25"/><path class="cls-4" d="M343.33,118.85c-.37,13.09-.74,27.4-.57,38.94.35,23.59,3.76,29,8.42,43.38L354,209c3.23,10,8.68,22.07,16.38,41.65,4.2,10.7,7.72,19.93,10.45,27.17,9.1,24.12,9.56,50.08,8.89,63.61-.93,19-4.67,18.57-6.33,22.86"/><path class="cls-3" d="M507,1345.69c14.61,9.81,36.23,24.46,41.48,28,20.42,13.9,34.55,8.42,44.59,2.1.33-.21.9-.54,1.67-1a174.65,174.65,0,0,0,22.87-15.62c19.47-15.9,46-38.63,67.57-57.94"/><path class="cls-3" d="M253.33,1402.8c2.76,12.87,9.47,22.34,21.28,27.25,18,7.49,49.13-13.73,68-27.07s71-47.8,71-47.8,19.54-14.76,30.16-18.11a25.89,25.89,0,0,0,5.27-2.07c3.94-2.35,9.44-3.52,16.95-3.82,4.22-.17,12.08.29,15.49,1.12a47.71,47.71,0,0,1,16.1,7.09c2.43,1.61,5.7,3.8,9.44,6.3"/><path class="cls-3" d="M595,1374.82c5.21-3.64,19.06-13.3,30.93,4.57,9.58,14.44,74.22,111.58,74.87,112.55"/></g><path class="cls-3" d="M469.61,344.13a357.28,357.28,0,0,1-28.71,40.41"/><path class="cls-1" d="M690.1,1314c20.24-18.1,46.62-26.53,51.28-32.4,4.84-6.09,17.06-22.24,30-39.37"/></svg>