<svg id="Phase13" xmlns="http://www.w3.org/2000/svg" viewBox="0 0 1080 1920"><defs><style>.cls-1,.cls-2,.cls-3,.cls-4{fill:none;stroke-width:3px;}.cls-1{stroke:#009d57;}.cls-2{stroke:#ef3e42;}.cls-3{stroke:#ffd420;}.cls-4{stroke:#f58220;}</style></defs><title>phase13</title><path class="cls-1" d="M278.48,626a107.4,107.4,0,0,0-3.36,21.53c-.25,8.66,0,279.6,0,297.63A418.85,418.85,0,0,1,272,991.41"/><path class="cls-1" d="M275.79,632.35c1.55-9.38,4.24-46.86,4.5-61.29s-3.51-34.49-6-48.7c-2.84-16.6-7-35.36-6.2-71.07s0-69.63-.26-96.69,3.88-64.58,6.72-86.22,3.88-62.78,3.88-79.73"/><path class="cls-1" d="M313.66,551.6c9.82-2.53,17.84.69,30.51-6.88s28.45-29.59,30.52-58.09-.51-66-1-76.48-1.42-24.8,1.65-31.17c2.76-5.72,6.74-9,7.54-13.15"/><path class="cls-1" d="M292.42,596.28c8.53-7.57,25.12-10.79,39.86-10.79s33.62-6.86,38.53-24.89,8.28-52.32,14.23-58.09"/><path class="cls-1" d="M386.59,495.65c-1.29,15.88-4.91,36.44-8,58.09s-19.91,33.91-27.93,36.43-44.48,4-53.54,4c-7.61,0-14.65,16-18.62,31.86"/><path class="cls-2" d="M287.6,1366.64c13.89,22.56,35.72,11.8,53.46,3.22,15-7.24,40.62-19.2,60.82-27.78,13.87-5.89,19.93-10.09,31.56-1.54"/><path class="cls-3" d="M183.92,920a30.42,30.42,0,0,0-.93,7.86v35.53c0,8.48,1,14.68,3.22,20"/><path class="cls-4" d="M645.53,1526.31c-11.86-18.09-20.84-31.89-22.22-34.29-6.35-11.08-10.11-32.19-13.12-49.16-.3-1.68-.6-3.34-.89-4.95"/></svg>