<svg id="Phase21" xmlns="http://www.w3.org/2000/svg" viewBox="0 0 1080 1920"><defs><style>.cls-1,.cls-2{fill:none;stroke-width:3px;}.cls-1{stroke:#f58220;}.cls-2{stroke:#006bb6;}</style></defs><title>phase21</title><path class="cls-1" d="M222.9,1156.18c5.25,10.53,13.62,14.7,24.31,14.9,0,0,24.46-.18,43.86-.27"/><path class="cls-1" d="M451.29,1395.57c0,3.39.06,6.65.07,9.82,0,11.27,5.71,18.49,17.57,19.15,19.39,1.08,48.1.54,57,.54s21.73,1.08,32.2,19.48,15.52,26.52,15.52,26.52a100.36,100.36,0,0,1,9.7,27.06c2.33,10.82,3.1,26,12.41,40.58"/><path class="cls-2" d="M711.43,1198.71c-11.56,11.12-100.85,110.37-117.06,119.55-37.17,21.08-50.81,29.07-64.34,36.26-13.72,7.3-5.85,12-21,24.27-5.32,4.31-10.45,6.11-16.1,6.2-7.88.13-17.38-.06-21-.06-8,0-11.22-9.1-11.4-16.86-.35-15.43.1-24-1.66-38.75"/><path class="cls-1" d="M291.09,1173.57A18.26,18.26,0,0,0,281,1170.9"/><path class="cls-1" d="M477.59,1292.73c-8.18-8-17.13-16.89-24.65-24.82-21.22-22.34-47.07-22.93-57.78-20.11l.09,0s-30.91,6.71-50.1,10.34c-38.82,7.35-39.19-27-39.56-47.89-.31-17.73-5.56-31.19-14.5-36.65"/></svg>