<svg id="Phase18" xmlns="http://www.w3.org/2000/svg" viewBox="0 0 1080 1920"><defs><style>.cls-1,.cls-2{fill:none;stroke-width:3px;}.cls-1{stroke:#939598;}.cls-2{stroke:#006bb6;}</style></defs><title>phase18</title><path class="cls-1" d="M808.61,1326.88s.75-22.24-2.74-39.82c-3.69-18.62-13-36.32-17.36-43.9s-46.3-62.41-53.28-72.51-27.42-35-33.62-38.24c-3.11-1.63-6.92-5.87-11.22-11.64"/><path class="cls-2" d="M227.63,1328.41c-2.09-3.82-8.6-11.68-8.6-22.41,0-9.93-.67-28-.57-39.32.07-8.11,5.39-9.55,5.39-15.08"/><path class="cls-2" d="M223.91,1251.6c-.51-23-1.09-58-1.09-62.26,0-29.06-8.68-30.34-28.6-39.12-9.37-4.14-24.37-10.75-34.43-15.44-9.84-4.58-20.23-9.42-20-39.82s0-508.91,0-521.15,1.51-32.7-12.7-54.62c-6.08-9.37-20.33-30.53-24.69-39.13-6.59-13-12.53-23.7-16.33-39.68-7.88-33.17,8.25-63.68,13.3-71.09s11.77-22.05,11.77-22.05"/></svg>