<svg id="Phase11" xmlns="http://www.w3.org/2000/svg" viewBox="0 0 1080 1920"><defs><style>.cls-1,.cls-2,.cls-3,.cls-4{fill:none;stroke-width:3px;}.cls-1{stroke:#f58220;}.cls-2{stroke:#009d57;}.cls-3{stroke:#9d3d96;}.cls-4{stroke:#b0720d;}</style></defs><title>phase11</title><path class="cls-1" d="M712.4,1714.23c4.61,7.06,9.25,15.35,12.22,20.85a11,11,0,0,1-.81,12.18"/><path class="cls-2" d="M275.79,632.35c1.55-9.38,4.24-46.86,4.5-61.29s-3.51-34.49-6-48.7c-2.84-16.6-7-35.36-6.2-71.07s0-69.63-.26-96.69"/><path class="cls-2" d="M267.88,354.6c-.26-27.06,3.88-64.58,6.72-86.22s3.88-62.78,3.88-79.73"/><path class="cls-3" d="M644.42,664.84c-3.53,7.82-8,17.67-12.67,27.81-8.65,18.9-14.45,33.11-24.44,51.18s-12.26,20.24-19.25,28.9-66.72,80.45-75.26,91.63-34.91,34.27-52.24,39.33-26.12.72-42.16-5.06c-7.44-2.67-12-2.39-15-.85"/><path class="cls-3" d="M403.38,897.78c-3.49,1.78-4.9,5.24-6.29,7.75-2.2,4-3.92,9.74-4.13,18-.12,4.75,1.71,21.7,2,26,.7,11.2,4.13,22.92,4.35,31.77.3,12.26-7,15.5-15,14.65-6.49-.68-7.24-4-19.91-4.33"/><path class="cls-1" d="M723.81,1747.26c-5.95,6.28-21.65,24.35-21.65,24.35"/><path class="cls-4" d="M744.42,1114.07c7.82-9.2,14.94-18,19.46-27.13"/><path class="cls-4" d="M763.88,1086.94a51.11,51.11,0,0,0,3.72-9.91"/><path class="cls-4" d="M767.6,1077a40.88,40.88,0,0,0,1.26-10.46"/><path class="cls-4" d="M768.86,1066.57a43.79,43.79,0,0,0-2.39-13.42c-1.39-4.13-2.56-7.67-3.45-10.81"/><path class="cls-4" d="M763,1042.34a53.69,53.69,0,0,1-1.82-8.42c-.72-6.07.39-11,4-17.43"/><path class="cls-4" d="M765.17,1016.49a134.15,134.15,0,0,1,8.82-13.25c16.08-22,65.36-93.21,72.1-102.38"/><path class="cls-4" d="M273.37,1276.5a70.36,70.36,0,0,0,1.18-10.52"/><path class="cls-2" d="M384.41,363.34c-3.59,7-7.38,9.06-11.7,12.68-4.65,3.9-5.44,5.35-5.15,20.15.17,8.65.9,19.48,1.56,31.92.81,15,1.56,30,1.56,40.29,0,16.19-1.74,40.53-19,61.56-15.22,18.51-38.24,22.29-55,25l-2.1.35a65.61,65.61,0,0,0-8.58,1.84c-5.55,1.46-5.58,9-5.82,20.11"/><path class="cls-1" d="M618.88,1573.59c30.56,45.81,79.64,118.94,79.64,118.94S705.7,1703.89,712,1714"/></svg>