<svg id="Phase10" xmlns="http://www.w3.org/2000/svg" viewBox="0 0 1080 1920"><defs><style>.cls-1,.cls-2,.cls-3,.cls-4,.cls-5{fill:none;stroke-width:3px;}.cls-1{stroke:#b0720d;}.cls-2{stroke:#f58220;}.cls-3{stroke:#ffd420;}.cls-4{stroke:#009d57;stroke-dasharray:5 1.5;}.cls-5{stroke:#ef3e42;}</style></defs><title>phase10</title><path class="cls-1" d="M461,1161.2c11.18,7.28,35.74,2.94,55.71.74,18.68-2.06,54.78-3.16,58.87-12.58"/><path class="cls-1" d="M459.12,1161.22c42-4,99.58-10.09,113.1-10.09"/><path class="cls-2" d="M299.82,1183.38c3.49,4.59,8.79,13.92,13.9,14.79,2.43.41,5.17.22,10.47-.11,7.88-.5,15.54-3.59,21.62-7,2.92-1.63,6.08-3.43,9.41-5.33,21-12,47.26-27,63.08-27,3.15,0,10-.79,18.63-1.8,5.67-.66,12.45-1.45,19.74-2.19v0l5.48-.55c9.59-.91,20-1.92,30.5-2.94,35.38-3.43,75.64-6.85,86.13-6.85l-.47.14"/><path class="cls-2" d="M701.11,1771.42c-1.13-2-4.15-6.37-6.79-10.29-5.82-8.66-21-29.89-26.85-35.3s-21.64-3.07-36.77-3.61-23.5-14.91-27.38-24.65-33.11-82.25-44.75-109.85-36.21-25.47-46.32-25.68c-4.88-.1-9.44-1.61-9.46-10.19,0-3.85.26-39.38.55-79.93"/><path class="cls-1" d="M572.22,1151.13c20.23,0,127.35-9.81,139.45-10.9,10.89-1,15.94-6.36,32.75-26.16"/><path class="cls-3" d="M416.85,715s1.81,135.27-3.1,157.64a43.9,43.9,0,0,1-14.58,24.8"/><path class="cls-4" d="M343.33,118.85c-.37,13.09-.74,27.4-.57,38.94.35,23.59,3.76,29,8.42,43.38L354,209c3.23,10,8.68,22.07,16.38,41.65,4.2,10.7,7.72,19.93,10.45,27.17,9.1,24.12,9.56,50.08,8.89,63.61-.93,19-4.67,18.57-6.33,22.86"/><path class="cls-5" d="M388.69,364.53a58.78,58.78,0,0,0,1.84-13.08c.78-17.86-.77-41.13-8.53-61.69s-22.5-55-27.54-70.71S344,195.24,343.59,168.72s1.55-70.17,1.55-70.17"/></svg>