<svg id="Phase26" xmlns="http://www.w3.org/2000/svg" viewBox="0 0 1080 1920"><defs><style>.cls-1,.cls-2,.cls-3{fill:none;stroke-width:3px;}.cls-1{stroke:#ef3e42;}.cls-2,.cls-3{stroke:#006bb6;}.cls-2{stroke-dasharray:5 1.5;}</style></defs><title>phase26</title><path class="cls-1" d="M217.41,573.36c-1.73-3.43-4.42-5.46-8.27-5.46h-14"/><path class="cls-2" d="M972.85,1550.75s17.73-42.1,24.64-65.82c6.2-21.31-14.87-83.28-20.61-100.71"/><path class="cls-3" d="M981.39,1380.19c6.91,20.21,16.17,53.63,23.26,58.41s11.89-1.73,15.29-14.22c3.61-13.22,8.06-27.58,14.62-35.27,16.71-19.56,23.55-41.06,27-74.4"/><path class="cls-3" d="M912.3,1082.83c.57,1.9,3.64,3.79,4.7,4.63,1.46,1.16,3,1.91,4.13,6.54.67,2.77,3.15,15,3.57,18,.75,5.45-3.57,8.45-2.63,12.81"/><path class="cls-3" d="M872.09,1047.73c9.47-11.4,17.15-15.41,26.67-4.17,10.41,12.27,27.4,102.15,34,131,7.57,32.88,40.71,188.07,45.53,204.88"/><path class="cls-3" d="M934,972.6s-51.82,64.14-61.39,74.9c-7.54,8.47-13.24,22.71-18.83,38.35"/></svg>