<svg id="Phase2" xmlns="http://www.w3.org/2000/svg" viewBox="0 0 1080 1920"><defs><style>.cls-1,.cls-2,.cls-3{fill:none;stroke-width:3px;}.cls-1{stroke:#009d57;}.cls-2{stroke:#9d3d96;}.cls-3{stroke:#ef3e42;}</style></defs><title>phase2</title><path class="cls-1" d="M269.88,1100.68c2.06,21.74,6.3,69.66,6.53,78.62,0,0,1.72,34.64,2,54.12a337.92,337.92,0,0,1-1.52,39.22"/><path class="cls-1" d="M269.21,1093.8c.18,1.78.41,4.12.67,6.88"/><path class="cls-1" d="M266.83,1029.66c-.9,20.78.84,48.83,2.38,64.14"/><path class="cls-1" d="M272,991.41c-.94,7.67-2.06,14.91-3.32,20.86a113.18,113.18,0,0,0-1.82,17.39"/><path class="cls-2" d="M270.21,991.41c-28.29,0-58.6-.06-84.35-.08"/><path class="cls-3" d="M112.46,576.21c-.16,39.29-.31,73.85-.31,79.9,0,13.53-.21,28.59,2.29,37.34,3,10.35,3.1,28.1,3.28,43.29s.14,67.39.14,94.42c0,7.78,1.07,14.6,3.85,26,4.6,18.82,7.71,35,22.76,61.51,13.43,23.69,24.64,41.83,34.24,57.2,3.81,6.1,6,10.56,7.15,15.46"/></svg>