<svg id="Phase5" xmlns="http://www.w3.org/2000/svg" viewBox="0 0 1080 1920"><defs><style>.cls-1,.cls-2{fill:none;stroke-width:3px;}.cls-1{stroke:#009d57;}.cls-2{stroke:#ef3e42;}</style></defs><title>phase5</title><path class="cls-1" d="M276.87,1272.64c-.88,8-2.18,15.24-4.08,20.66-4.91,14.07-9.69,24.44-14.22,42.93"/><path class="cls-1" d="M258.57,1336.23c-1.07,4.38-4.16,18.47-6.19,40-.93,9.93-.7,18.88,1,26.6"/><path class="cls-2" d="M166.82,300.41c-6.1,6.06-13.3,12.61-19.76,18.16-10.25,8.82-12.6,19.2-16.26,30.57"/><path class="cls-2" d="M130.8,349.14c-2.59,8.05-7.69,23.6-11,38.08a295.37,295.37,0,0,0-6.92,63.28c0,12.81-.09,20.63-.14,35.89"/><path class="cls-2" d="M112.74,486.27c0,2.77-4,6.52-4,9.27v4c0,2.75,4,6.5,4,9.27"/></svg>