<svg id="Phase4" xmlns="http://www.w3.org/2000/svg" viewBox="0 0 1080 1920"><defs><style>.cls-1,.cls-2{fill:none;stroke-width:3px;}.cls-1{stroke:#009d57;}.cls-2{stroke:#ef3e42;}</style></defs><title>subwaymap_timeline</title><path class="cls-1" d="M384.41,363.34c-3.59,7-7.38,9.06-11.7,12.68-4.65,3.9-5.44,5.35-5.15,20.15.17,8.65.9,19.48,1.56,31.92.81,15,1.56,30,1.56,40.29,0,16.19-1.74,40.53-19,61.56-15.22,18.51-38.24,22.29-55,25l-2.1.35a65.61,65.61,0,0,0-8.58,1.84c-5.55,1.46-5.58,9-5.82,20.11"/><path class="cls-2" d="M275.89,566.64a150.55,150.55,0,0,1,21.92-5.77c16.3-2.7,40.35-6,55.48-24.35s18.24-39.5,18.24-57.9-2.72-54.12-3.11-73.6,1.94-18.94,8.92-24.35c4.91-3.8,9.05-7.87,11.35-16.14"/></svg>