<svg id="Phase6" xmlns="http://www.w3.org/2000/svg" viewBox="0 0 1080 1920"><defs><style>.cls-1,.cls-2,.cls-3{fill:none;stroke-width:3px;}.cls-1{stroke:#ffd420;}.cls-2{stroke:#f58220;}.cls-3{stroke:#ef3e42;}</style></defs><title>phase6</title><path class="cls-1" d="M718.54,1645.23s24.83,39.51,29.88,46c3.37,4.35,8,15.23,7.14,26.49"/><path class="cls-1" d="M686.15,1596.2c17.7,26.83,32.39,49,32.39,49"/><path class="cls-1" d="M643.17,1530.86c12.1,18.48,28.54,43.45,43,65.34"/><path class="cls-2" d="M753.61,1708.45c.94-13-4.25-24.8-8-29.59-4.89-6.29-29.44-45.33-29.73-45.79-.61-.93-43.12-65.19-70.38-106.76"/><path class="cls-3" d="M180.31,195.23c11.46,29.76,6.29,83.12-4.8,96-2.38,2.76-5.37,5.91-8.69,9.19"/></svg>